<?xml version="1.0" encoding="UTF-8"?>
<!DOCTYPE svg PUBLIC "-//W3C//DTD SVG 1.1//EN" "http://www.w3.org/Graphics/SVG/1.1/DTD/svg11.dtd">
<!-- Creator: CorelDRAW -->
<svg xmlns="http://www.w3.org/2000/svg" xml:space="preserve" width="126.265mm" height="17.5522mm" version="1.1" style="shape-rendering:geometricPrecision; text-rendering:geometricPrecision; image-rendering:optimizeQuality; fill-rule:evenodd; clip-rule:evenodd"
viewBox="0 0 771.98 107.31"
 xmlns:xlink="http://www.w3.org/1999/xlink"
 xmlns:xodm="http://www.corel.com/coreldraw/odm/2003">
 <defs>
  <style type="text/css">
   <![CDATA[
    .str0 {stroke:#332C2B;stroke-width:4.31;stroke-miterlimit:22.9256}
    .fil0 {fill:none}
   ]]>
  </style>
 </defs>
 <g id="Layer_x0020_1">
  <metadata id="CorelCorpID_0Corel-Layer"/>
  <rect class="fil0 str0" x="207.37" y="17.48" width="352.67" height="87.68"/>
  <rect class="fil0 str0" x="194.31" y="2.16" width="380.91" height="15.25"/>
  <rect class="fil0 str0" transform="matrix(-3.0409E-14 -0.344897 0.391217 -3.11236E-15 650.036 82.6832)" width="114.58" height="55.32"/>
  <rect class="fil0 str0" transform="matrix(-3.0409E-14 -0.344897 0.391217 -3.11236E-15 671.888 82.6832)" width="114.58" height="55.32"/>
  <rect class="fil0 str0" transform="matrix(-3.03712E-14 -0.344373 0.390731 -3.10763E-15 94.3108 81.7975)" width="114.58" height="55.32"/>
  <rect class="fil0 str0" transform="matrix(-3.03712E-14 -0.344373 0.390731 -3.10763E-15 72.4864 81.7975)" width="114.58" height="55.32"/>
  <rect class="fil0 str0" x="2.16" y="55.38" width="70.18" height="15.47"/>
  <rect class="fil0 str0" x="21.38" y="37.82" width="28.21" height="17.78"/>
  <ellipse class="fil0 str0" cx="35.31" cy="29.31" rx="13.15" ry="8.51"/>
  <ellipse class="fil0 str0" cx="167.51" cy="62.13" rx="23.44" ry="18.68"/>
  <ellipse class="fil0 str0" cx="167.8" cy="62.05" rx="17.48" ry="13.45"/>
  <line class="fil0 str0" x1="166.91" y1="48.61" x2="167.31" y2= "61.13" />
  <line class="fil0 str0" x1="167.31" y1="61.13" x2="181.28" y2= "69.93" />
  <line class="fil0 str0" x1="167.31" y1="61.13" x2="155.16" y2= "70.73" />
  <line class="fil0 str0" x1="115.93" y1="71.08" x2="147.02" y2= "71.08" />
  <line class="fil0 str0" x1="206.27" y1="55.44" x2="190.2" y2= "55.44" />
  <line class="fil0 str0" x1="206.27" y1="71.36" x2="188.47" y2= "71.36" />
  <ellipse class="fil0 str0" cx="610.99" cy="61.57" rx="23.47" ry="18.71"/>
  <ellipse class="fil0 str0" cx="611.84" cy="61.48" rx="17.51" ry="13.47"/>
  <line class="fil0 str0" x1="610.95" y1="48.03" x2="611.36" y2= "60.56" />
  <line class="fil0 str0" x1="611.36" y1="60.56" x2="625.34" y2= "69.38" />
  <line class="fil0 str0" x1="611.36" y1="60.56" x2="599.18" y2= "70.18" />
  <line class="fil0 str0" x1="650.36" y1="54.86" x2="634.27" y2= "54.86" />
  <line class="fil0 str0" x1="650.36" y1="70.82" x2="632.54" y2= "70.82" />
  <line class="fil0 str0" x1="115.49" y1="55.67" x2="144.72" y2= "55.67" />
  <line class="fil0 str0" x1="560.69" y1="53.58" x2="590.29" y2= "53.58" />
  <line class="fil0 str0" x1="560.69" y1="70.63" x2="591.59" y2= "70.63" />
  <ellipse class="fil0 str0" cx="735" cy="62.19" rx="15.96" ry="11.29"/>
  <line class="fil0 str0" x1="694.09" y1="55.06" x2="722.51" y2= "55.06" />
  <line class="fil0 str0" x1="694.09" y1="70.74" x2="724.32" y2= "70.74" />
  <g id="_3009301172464">
   <line class="fil0 str0" x1="745.42" y1="70.5" x2="769.87" y2= "70.5" />
   <line class="fil0 str0" x1="746.39" y1="55.25" x2="770.8" y2= "55.25" />
   <line class="fil0 str0" x1="769.83" y1="70.5" x2="769.83" y2= "55.25" />
  </g>
 </g>
</svg>
