<?xml version="1.0" encoding="UTF-8"?>
<!DOCTYPE svg PUBLIC "-//W3C//DTD SVG 1.1//EN" "http://www.w3.org/Graphics/SVG/1.1/DTD/svg11.dtd">
<!-- Creator: CorelDRAW -->
<svg xmlns="http://www.w3.org/2000/svg" xml:space="preserve" width="150.763mm" height="30.8359mm" version="1.1" style="shape-rendering:geometricPrecision; text-rendering:geometricPrecision; image-rendering:optimizeQuality; fill-rule:evenodd; clip-rule:evenodd"
viewBox="0 0 1086.61 222.25"
 xmlns:xlink="http://www.w3.org/1999/xlink"
 xmlns:xodm="http://www.corel.com/coreldraw/odm/2003">
 <defs>
  <style type="text/css">
   <![CDATA[
    .str0 {stroke:#332C2B;stroke-width:5.09;stroke-miterlimit:22.9256}
    .fil0 {fill:none}
   ]]>
  </style>
 </defs>
 <g id="Layer_x0020_1">
  <metadata id="CorelCorpID_0Corel-Layer"/>
  <rect class="fil0 str0" x="308.58" y="113.01" width="483.68" height="106.69"/>
  <rect class="fil0 str0" x="260.95" y="71.54" width="593.86" height="20.74"/>
  <rect class="fil0 str0" transform="matrix(-3.68959E-14 -0.391497 0.474672 -3.53288E-15 921.368 194.867)" width="135.07" height="65.22"/>
  <rect class="fil0 str0" transform="matrix(-3.68959E-14 -0.391497 0.474672 -3.53288E-15 952.623 194.867)" width="135.07" height="65.22"/>
  <rect class="fil0 str0" transform="matrix(-3.68959E-14 -0.391497 0.474672 -3.53288E-15 134.515 190.673)" width="135.07" height="65.22"/>
  <rect class="fil0 str0" transform="matrix(-3.68959E-14 -0.391497 0.474672 -3.53288E-15 103.261 190.673)" width="135.07" height="65.22"/>
  <rect class="fil0 str0" x="983.57" y="158.06" width="100.5" height="20.74"/>
  <rect class="fil0 str0" x="2.54" y="155.27" width="100.5" height="20.74"/>
  <rect class="fil0 str0" x="30.08" y="131.74" width="40.41" height="23.82"/>
  <ellipse class="fil0 str0" cx="50.02" cy="120.33" rx="18.83" ry="11.41"/>
  <rect class="fil0 str0" x="385.25" y="39.6" width="54.09" height="31.89"/>
  <ellipse class="fil0 str0" cx="414.02" cy="21.07" rx="25.56" ry="18.53"/>
  <ellipse class="fil0 str0" cx="239.34" cy="164.32" rx="33.57" ry="25.04"/>
  <ellipse class="fil0 str0" cx="239.76" cy="164.2" rx="25.04" ry="18.03"/>
  <line class="fil0 str0" x1="238.49" y1="146.2" x2="239.06" y2= "162.97" />
  <line class="fil0 str0" x1="239.06" y1="162.97" x2="259.06" y2= "174.77" />
  <line class="fil0 str0" x1="239.06" y1="162.97" x2="221.65" y2= "175.84" />
  <line class="fil0 str0" x1="165.47" y1="176.31" x2="210.01" y2= "176.31" />
  <line class="fil0 str0" x1="311.4" y1="155.35" x2="271.84" y2= "155.35" />
  <line class="fil0 str0" x1="314.73" y1="176.69" x2="269.36" y2= "176.69" />
  <ellipse class="fil0 str0" cx="865.52" cy="166.62" rx="33.57" ry="25.04"/>
  <ellipse class="fil0 str0" cx="865.94" cy="166.5" rx="25.04" ry="18.03"/>
  <line class="fil0 str0" x1="864.67" y1="148.5" x2="865.25" y2= "165.27" />
  <line class="fil0 str0" x1="865.25" y1="165.27" x2="885.25" y2= "177.07" />
  <line class="fil0 str0" x1="865.25" y1="165.27" x2="847.84" y2= "178.13" />
  <line class="fil0 str0" x1="921.04" y1="157.64" x2="898.03" y2= "157.64" />
  <line class="fil0 str0" x1="921.04" y1="178.99" x2="895.55" y2= "178.99" />
  <line class="fil0 str0" x1="164.84" y1="155.65" x2="206.71" y2= "155.65" />
  <line class="fil0 str0" x1="792.78" y1="155.92" x2="835.11" y2= "155.92" />
  <line class="fil0 str0" x1="792.78" y1="178.75" x2="836.97" y2= "178.75" />
  <line class="fil0 str0" x1="402.87" y1="3.63" x2="402.87" y2= "18.19" />
  <line class="fil0 str0" x1="402.87" y1="18.19" x2="422.49" y2= "31.76" />
  <rect class="fil0 str0" x="260.95" y="91.49" width="593.86" height="20.74"/>
  <ellipse class="fil0 str0" cx="50.02" cy="120.33" rx="18.83" ry="11.41"/>
 </g>
</svg>
