<?xml version="1.0" encoding="UTF-8"?>
<!DOCTYPE svg PUBLIC "-//W3C//DTD SVG 1.1//EN" "http://www.w3.org/Graphics/SVG/1.1/DTD/svg11.dtd">
<!-- Creator: CorelDRAW -->
<svg xmlns="http://www.w3.org/2000/svg" xml:space="preserve" width="33.3743mm" height="5.0965mm" version="1.1" style="shape-rendering:geometricPrecision; text-rendering:geometricPrecision; image-rendering:optimizeQuality; fill-rule:evenodd; clip-rule:evenodd"
viewBox="0 0 56.28 8.59"
 xmlns:xlink="http://www.w3.org/1999/xlink"
 xmlns:xodm="http://www.corel.com/coreldraw/odm/2003">
 <defs>
  <style type="text/css">
   <![CDATA[
    .str0 {stroke:#332C2B;stroke-width:1.19;stroke-miterlimit:22.9256}
    .fil0 {fill:none}
    .fil1 {fill:white}
   ]]>
  </style>
    <clipPath id="id0">
     <path d="M3.12 0.59c1.39,0 2.52,1.66 2.52,3.7 0,2.04 -1.13,3.7 -2.52,3.7 -1.39,0 -2.52,-1.66 -2.52,-3.7 0,-2.04 1.13,-3.7 2.52,-3.7z"/>
    </clipPath>
 </defs>
 <g id="Layer_x0020_1">
  <metadata id="CorelCorpID_0Corel-Layer"/>
  <rect class="fil0 str0" x="2.6" y="1.02" width="53.08" height="6.58"/>
  <g>
   <g style="clip-path:url(#id0)">
    <polygon class="fil1" points="-1.98,4.19 2.46,-0.12 7.51,5.08 3.08,9.39 "/>
    <polygon id="_1" class="fil1" points="2.45,-0.11 2.47,-0.13 7.52,5.07 7.51,5.09 "/>
    <polygon id="_2" class="fil1" points="2.46,-0.12 2.48,-0.14 7.53,5.06 7.52,5.08 "/>
    <polygon id="_3" class="fil1" points="2.47,-0.13 2.49,-0.15 7.54,5.05 7.53,5.07 "/>
    <polygon id="_4" class="fil1" points="2.48,-0.14 2.5,-0.15 7.55,5.04 7.54,5.06 "/>
    <polygon id="_5" class="fil1" points="2.49,-0.15 2.51,-0.16 7.56,5.03 7.55,5.05 "/>
    <polygon id="_6" class="fil1" points="2.5,-0.16 2.52,-0.17 7.57,5.02 7.56,5.04 "/>
    <polygon id="_7" class="fil1" points="2.51,-0.17 2.53,-0.18 7.58,5.02 7.57,5.03 "/>
    <polygon id="_8" class="fil1" points="2.52,-0.18 2.54,-0.19 7.59,5.01 7.58,5.02 "/>
    <polygon id="_9" class="fil1" points="2.53,-0.19 2.54,-0.2 7.6,5 7.59,5.01 "/>
    <polygon id="_10" class="fil1" points="2.54,-0.2 2.55,-0.21 7.61,4.99 7.6,5 "/>
    <polygon id="_11" class="fil1" points="2.55,-0.21 2.56,-0.22 7.62,4.98 7.61,4.99 "/>
    <polygon id="_12" class="fil1" points="2.56,-0.22 2.57,-0.23 7.63,4.97 7.62,4.98 "/>
    <polygon id="_13" class="fil1" points="2.57,-0.23 2.58,-0.24 7.64,4.96 7.63,4.97 "/>
    <polygon id="_14" class="fil1" points="2.58,-0.24 2.59,-0.25 7.65,4.95 7.64,4.96 "/>
    <polygon id="_15" class="fil1" points="2.59,-0.25 2.6,-0.26 7.66,4.94 7.65,4.95 "/>
    <polygon id="_16" class="fil1" points="2.6,-0.26 2.61,-0.27 7.67,4.93 7.66,4.94 "/>
    <polygon id="_17" class="fil1" points="2.61,-0.26 2.62,-0.28 7.68,4.92 7.67,4.93 "/>
    <polygon id="_18" class="fil1" points="2.62,-0.27 2.63,-0.29 7.69,4.91 7.68,4.92 "/>
    <polygon id="_19" class="fil1" points="2.63,-0.28 2.64,-0.3 7.7,4.9 7.69,4.91 "/>
    <polygon id="_20" class="fil1" points="2.64,-0.29 2.65,-0.31 7.71,4.89 7.7,4.91 "/>
    <polygon id="_21" class="fil1" points="2.65,-0.3 2.66,-0.32 7.72,4.88 7.71,4.9 "/>
    <polygon id="_22" class="fil1" points="2.66,-0.31 2.67,-0.33 7.73,4.87 7.71,4.89 "/>
    <polygon id="_23" class="fil1" points="2.67,-0.32 2.68,-0.34 7.74,4.86 7.72,4.88 "/>
    <polygon id="_24" class="fil1" points="2.68,-0.33 2.69,-0.35 7.75,4.85 7.73,4.87 "/>
    <polygon id="_25" class="fil1" points="2.69,-0.34 2.7,-0.36 7.76,4.84 7.74,4.86 "/>
    <polygon id="_26" class="fil1" points="2.7,-0.35 2.71,-0.37 7.77,4.83 7.75,4.85 "/>
    <polygon id="_27" class="fil1" points="2.71,-0.36 2.72,-0.37 7.78,4.82 7.76,4.84 "/>
    <polygon id="_28" class="fil1" points="2.72,-0.37 2.73,-0.38 7.79,4.81 7.77,4.83 "/>
    <polygon id="_29" class="fil1" points="2.73,-0.38 2.74,-0.39 7.8,4.8 7.78,4.82 "/>
    <polygon id="_30" class="fil1" points="2.74,-0.39 2.75,-0.4 7.81,4.8 7.79,4.81 "/>
    <polygon id="_31" class="fil1" points="2.75,-0.4 2.76,-0.41 7.82,4.79 7.8,4.8 "/>
    <polygon id="_32" class="fil1" points="2.76,-0.41 2.77,-0.42 7.83,4.78 7.81,4.79 "/>
    <polygon id="_33" class="fil1" points="2.77,-0.42 2.78,-0.43 7.84,4.77 7.82,4.78 "/>
    <polygon id="_34" class="fil1" points="2.78,-0.43 2.79,-0.44 7.85,4.76 7.83,4.77 "/>
    <polygon id="_35" class="fil1" points="2.79,-0.44 2.8,-0.45 7.86,4.75 7.84,4.76 "/>
    <polygon id="_36" class="fil1" points="2.8,-0.45 2.81,-0.46 7.87,4.74 7.85,4.75 "/>
    <polygon id="_37" class="fil1" points="2.81,-0.46 2.82,-0.47 7.88,4.73 7.86,4.74 "/>
    <polygon id="_38" class="fil1" points="2.82,-0.47 2.83,-0.48 7.89,4.72 7.87,4.73 "/>
    <polygon id="_39" class="fil1" points="2.83,-0.48 2.84,-0.49 7.9,4.71 7.88,4.72 "/>
    <polygon id="_40" class="fil1" points="2.84,-0.49 2.85,-0.5 7.91,4.7 7.89,4.71 "/>
    <polygon id="_41" class="fil1" points="2.85,-0.49 2.86,-0.51 7.92,4.69 7.9,4.7 "/>
    <polygon id="_42" class="fil1" points="2.86,-0.5 2.87,-0.52 7.93,4.68 7.91,4.69 "/>
    <polygon id="_43" class="fil1" points="2.87,-0.51 2.88,-0.53 7.94,4.67 7.92,4.68 "/>
    <polygon id="_44" class="fil1" points="2.87,-0.52 2.89,-0.54 7.95,4.66 7.93,4.68 "/>
    <polygon id="_45" class="fil1" points="2.88,-0.53 2.9,-0.55 7.96,4.65 7.94,4.67 "/>
    <polygon id="_46" class="fil1" points="2.89,-0.54 2.91,-0.56 7.97,4.64 7.95,4.66 "/>
    <polygon id="_47" class="fil1" points="2.9,-0.55 2.92,-0.57 7.98,4.63 7.96,4.65 "/>
    <polygon id="_48" class="fil1" points="2.91,-0.56 2.93,-0.58 7.99,4.62 7.97,4.64 "/>
    <polygon id="_49" class="fil1" points="2.92,-0.57 2.94,-0.59 8,4.61 7.98,4.63 "/>
    <polygon id="_50" class="fil1" points="2.93,-0.58 2.95,-0.6 8.01,4.6 7.99,4.62 "/>
    <polygon id="_51" class="fil1" points="2.94,-0.59 2.96,-0.6 8.02,4.59 8,4.61 "/>
    <polygon id="_52" class="fil1" points="2.95,-0.6 2.97,-0.61 8.03,4.58 8.01,4.6 "/>
    <polygon id="_53" class="fil1" points="2.96,-0.61 2.98,-0.62 8.03,4.57 8.02,4.59 "/>
    <polygon id="_54" class="fil1" points="2.97,-0.62 2.99,-0.63 8.04,4.57 8.03,4.58 "/>
    <polygon id="_55" class="fil1" points="2.98,-0.63 3,-0.64 8.05,4.56 8.04,4.57 "/>
    <polygon id="_56" class="fil1" points="2.99,-0.64 3.01,-0.65 8.06,4.55 8.05,4.56 "/>
    <polygon id="_57" class="fil1" points="3,-0.65 3.02,-0.66 8.07,4.54 8.06,4.55 "/>
    <polygon id="_58" class="fil1" points="3.01,-0.66 3.03,-0.67 8.08,4.53 8.07,4.54 "/>
    <polygon id="_59" class="fil1" points="3.02,-0.67 3.04,-0.68 8.09,4.52 8.08,4.53 "/>
    <polygon id="_60" class="fil1" points="3.03,-0.68 3.05,-0.69 8.1,4.51 8.09,4.52 "/>
    <polygon id="_61" class="fil1" points="3.04,-0.69 3.06,-0.7 8.11,4.5 8.1,4.51 "/>
    <polygon id="_62" class="fil1" points="3.05,-0.7 3.07,-0.71 8.12,4.49 8.11,4.5 "/>
    <polygon id="_63" class="fil1" points="3.06,-0.71 3.08,-0.72 8.13,4.48 8.12,4.49 "/>
    <polygon id="_64" class="fil1" points="3.07,-0.72 3.09,-0.73 8.14,4.47 8.13,4.48 "/>
    <polygon id="_65" class="fil1" points="3.08,-0.72 3.1,-0.74 8.15,4.46 8.14,4.47 "/>
    <polygon id="_66" class="fil1" points="3.09,-0.73 3.11,-0.75 8.16,4.45 8.15,4.46 "/>
    <polygon id="_67" class="fil1" points="3.1,-0.74 3.12,-0.76 8.17,4.44 8.16,4.45 "/>
    <polygon id="_68" class="fil1" points="3.11,-0.75 3.13,-0.77 8.18,4.43 8.17,4.45 "/>
    <polygon id="_69" class="fil1" points="3.12,-0.76 3.14,-0.78 8.19,4.42 8.18,4.44 "/>
    <polygon id="_70" class="fil1" points="3.13,-0.77 3.15,-0.79 8.2,4.41 8.19,4.43 "/>
    <polygon id="_71" class="fil1" points="3.14,-0.78 3.16,-0.8 8.21,4.4 8.2,4.42 "/>
    <polygon id="_72" class="fil1" points="3.15,-0.79 3.17,-0.81 8.22,4.39 8.21,4.41 "/>
    <polygon id="_73" class="fil1" points="3.16,-0.8 3.16,-0.8 8.21,4.4 8.22,4.4 "/>
   </g>
   <path id="_74" class="fil0 str0" d="M3.12 0.59c1.39,0 2.52,1.66 2.52,3.7 0,2.04 -1.13,3.7 -2.52,3.7 -1.39,0 -2.52,-1.66 -2.52,-3.7 0,-2.04 1.13,-3.7 2.52,-3.7z"/>
  </g>
 </g>
</svg>
