<?xml version="1.0" encoding="UTF-8"?>
<!DOCTYPE svg PUBLIC "-//W3C//DTD SVG 1.1//EN" "http://www.w3.org/Graphics/SVG/1.1/DTD/svg11.dtd">
<!-- Creator: CorelDRAW -->
<svg xmlns="http://www.w3.org/2000/svg" xml:space="preserve" width="70.5584mm" height="21.1015mm" version="1.1" style="shape-rendering:geometricPrecision; text-rendering:geometricPrecision; image-rendering:optimizeQuality; fill-rule:evenodd; clip-rule:evenodd"
viewBox="0 0 246.85 73.83"
 xmlns:xlink="http://www.w3.org/1999/xlink"
 xmlns:xodm="http://www.corel.com/coreldraw/odm/2003">
 <defs>
  <style type="text/css">
   <![CDATA[
    .str0 {stroke:#332C2B;stroke-width:2.47;stroke-miterlimit:22.9256}
    .str1 {stroke:white;stroke-width:2.47;stroke-miterlimit:22.9256}
    .fil0 {fill:none}
    .fil1 {fill:white}
   ]]>
  </style>
 </defs>
 <g id="Layer_x0020_1">
  <metadata id="CorelCorpID_0Corel-Layer"/>
  <line class="fil0 str0" x1="40.32" y1="1.23" x2="211.26" y2= "1.23" />
  <line class="fil0 str0" x1="58.51" y1="18.15" x2="190.75" y2= "18.15" />
  <line class="fil0 str0" x1="40.32" y1="1.23" x2="58.51" y2= "18.15" />
  <line class="fil0 str0" x1="211.26" y1="1.23" x2="190.75" y2= "18.15" />
  <rect class="fil0 str0" x="183.71" y="27.65" width="61.91" height="11.46" rx="4.55" ry="5.73"/>
  <rect class="fil0 str0" x="23.14" y="50.22" width="203.02" height="11.23"/>
  <rect class="fil0 str0" x="23.27" y="61.36" width="203.02" height="11.23"/>
  <line class="fil0 str0" x1="40.32" y1="1.23" x2="211.26" y2= "1.23" />
  <line class="fil0 str0" x1="58.51" y1="18.15" x2="190.75" y2= "18.15" />
  <line class="fil0 str0" x1="40.32" y1="1.23" x2="58.51" y2= "18.15" />
  <line class="fil0 str0" x1="211.26" y1="1.23" x2="190.75" y2= "18.15" />
  <rect class="fil1 str1" x="1.23" y="26.16" width="61.91" height="11.46" rx="4.55" ry="5.73"/>
  <path class="fil0 str0" d="M57.71 18.2l133.03 -0.04 -0.06 4.14 0 5.57c-2.01,-0.02 -3.72,-0.11 -5.33,1.84 -0.89,1.07 -1.29,2.33 -1.32,3.77 0.07,3.19 2.25,5.56 5.1,5.6l1.56 0 0 11.01 -132.97 0 0 -31.87z"/>
 </g>
</svg>
