<?xml version="1.0" encoding="UTF-8"?>
<!DOCTYPE svg PUBLIC "-//W3C//DTD SVG 1.1//EN" "http://www.w3.org/Graphics/SVG/1.1/DTD/svg11.dtd">
<!-- Creator: CorelDRAW -->
<svg xmlns="http://www.w3.org/2000/svg" xml:space="preserve" width="145.591mm" height="21.8794mm" version="1.1" style="shape-rendering:geometricPrecision; text-rendering:geometricPrecision; image-rendering:optimizeQuality; fill-rule:evenodd; clip-rule:evenodd"
viewBox="0 0 1019.33 153.19"
 xmlns:xlink="http://www.w3.org/1999/xlink"
 xmlns:xodm="http://www.corel.com/coreldraw/odm/2003">
 <defs>
  <style type="text/css">
   <![CDATA[
    .str0 {stroke:#332C2B;stroke-width:4.94;stroke-miterlimit:22.9256}
    .fil0 {fill:none}
   ]]>
  </style>
 </defs>
 <g id="Layer_x0020_1">
  <metadata id="CorelCorpID_0Corel-Layer"/>
  <rect class="fil0 str0" x="311.43" y="23.55" width="356.49" height="106.22"/>
  <rect class="fil0 str0" x="243.96" y="2.47" width="481.07" height="20.93"/>
  <rect class="fil0 str0" transform="matrix(-4.35109E-14 -0.398506 0.559776 -3.59613E-15 816.049 102.018)" width="131.21" height="63.35"/>
  <ellipse class="fil0 str0" cx="251.26" cy="73.03" rx="34.32" ry="22.1"/>
  <ellipse class="fil0 str0" cx="251.69" cy="72.93" rx="25.6" ry="15.91"/>
  <line class="fil0 str0" x1="250.39" y1="57.04" x2="250.98" y2= "71.84" />
  <line class="fil0 str0" x1="250.98" y1="71.84" x2="271.42" y2= "82.25" />
  <line class="fil0 str0" x1="250.98" y1="71.84" x2="233.18" y2= "83.19" />
  <line class="fil0 str0" x1="182.59" y1="83.61" x2="221.27" y2= "83.61" />
  <line class="fil0 str0" x1="308.02" y1="65.11" x2="284.49" y2= "65.11" />
  <line class="fil0 str0" x1="308.02" y1="83.95" x2="281.96" y2= "83.95" />
  <ellipse class="fil0 str0" cx="752.07" cy="74.09" rx="38.46" ry="24.76"/>
  <ellipse class="fil0 str0" cx="752.55" cy="73.97" rx="28.68" ry="17.83"/>
  <line class="fil0 str0" x1="751.1" y1="56.17" x2="751.76" y2= "72.75" />
  <line class="fil0 str0" x1="751.76" y1="72.75" x2="774.67" y2= "84.42" />
  <line class="fil0 str0" x1="751.76" y1="72.75" x2="731.81" y2= "85.47" />
  <line class="fil0 str0" x1="815.67" y1="65.21" x2="789.31" y2= "65.21" />
  <line class="fil0 str0" x1="815.67" y1="86.32" x2="786.47" y2= "86.32" />
  <line class="fil0 str0" x1="182.28" y1="65.38" x2="217.9" y2= "65.38" />
  <line class="fil0 str0" x1="668.74" y1="63.51" x2="717.24" y2= "63.51" />
  <line class="fil0 str0" x1="668.74" y1="86.08" x2="719.37" y2= "86.08" />
  <ellipse class="fil0 str0" cx="907.62" cy="74.9" rx="22.38" ry="14.94"/>
  <line class="fil0 str0" x1="850.23" y1="65.47" x2="890.11" y2= "65.47" />
  <line class="fil0 str0" x1="850.23" y1="86.22" x2="892.64" y2= "86.22" />
  <g id="_3010312116096">
   <line class="fil0 str0" x1="922.25" y1="85.89" x2="956.53" y2= "85.89" />
   <line class="fil0 str0" x1="923.61" y1="65.72" x2="957.84" y2= "65.72" />
   <line class="fil0 str0" x1="956.47" y1="85.89" x2="956.47" y2= "65.72" />
  </g>
  <rect class="fil0 str0" x="246.75" y="129.78" width="481.07" height="20.93"/>
  <rect class="fil0 str0" transform="matrix(-4.35109E-14 -0.398506 0.559776 -3.59613E-15 955.952 103.734)" width="131.21" height="63.35"/>
  <rect class="fil0 str0" x="991.93" y="65.63" width="24.93" height="20.51"/>
  <rect class="fil0 str0" transform="matrix(1.13974E-14 0.355659 -0.499589 -1.49617E-14 181.691 50.6997)" width="131.21" height="63.35"/>
  <ellipse class="fil0 str0" cx="99.97" cy="74.9" rx="19.98" ry="13.33"/>
  <line class="fil0 str0" x1="151.18" y1="83.32" x2="115.6" y2= "83.32" />
  <line class="fil0 str0" x1="151.18" y1="64.8" x2="113.34" y2= "64.8" />
  <g id="_3010312121424">
   <line class="fil0 str0" x1="86.91" y1="65.09" x2="56.31" y2= "65.09" />
   <line class="fil0 str0" x1="85.7" y1="83.1" x2="55.15" y2= "83.1" />
   <line class="fil0 str0" x1="56.37" y1="65.09" x2="56.37" y2= "83.1" />
  </g>
  <rect class="fil0 str0" transform="matrix(1.13974E-14 0.355659 -0.499589 -1.49617E-14 56.83 49.1685)" width="131.21" height="63.35"/>
  <rect class="fil0 str0" x="2.47" y="64.87" width="22.25" height="18.3"/>
 </g>
</svg>
